<svg width="62" height="61" viewBox="0 0 62 61" fill="none" xmlns="http://www.w3.org/2000/svg">
<g id="image-outline 1">
<path id="Vector" d="M49.7786 9.4809H12.2214C9.11001 9.4809 6.58777 12.0031 6.58777 15.1145V45.1603C6.58777 48.2716 9.11001 50.7939 12.2214 50.7939H49.7786C52.8899 50.7939 55.4122 48.2716 55.4122 45.1603V15.1145C55.4122 12.0031 52.8899 9.4809 49.7786 9.4809Z" stroke="black" stroke-opacity="0.4" stroke-width="2" stroke-linejoin="round"/>
<path id="Vector_2" d="M40.3893 24.5038C42.4635 24.5038 44.145 22.8223 44.145 20.7481C44.145 18.6739 42.4635 16.9924 40.3893 16.9924C38.315 16.9924 36.6335 18.6739 36.6335 20.7481C36.6335 22.8223 38.315 24.5038 40.3893 24.5038Z" stroke="black" stroke-opacity="0.4" stroke-width="2" stroke-miterlimit="10"/>
<path id="Vector_3" d="M36.6336 39.5021L25.9931 28.8816C25.316 28.2047 24.406 27.8119 23.449 27.7835C22.492 27.7552 21.5602 28.0934 20.8443 28.729L6.58777 41.4046M27.2443 50.7939L41.7202 36.3179C42.3822 35.6546 43.2684 35.2627 44.2045 35.2193C45.1407 35.1758 46.0593 35.484 46.7799 36.0832L55.4122 43.2824" stroke="black" stroke-opacity="0.4" stroke-width="2" stroke-linecap="round" stroke-linejoin="round"/>
</g>
</svg>
